<svg xmlns="http://www.w3.org/2000/svg" width="102" height="40" viewBox="0 0 102 40">
  <defs>
    <style>
      .cls-1 {
        fill: #fff;
        fill-rule: evenodd;
      }
    </style>
  </defs>
  <path class="cls-1" d="M19,19.787h0a6.066,6.066,0,0,0,2.454-2.225,5.95,5.95,0,0,0,.865-3.185,5.541,5.541,0,0,0-2.472-4.751q-2.472-1.763-7.2-1.762H0V32.777H13.346q4.943,0,7.556-1.779a5.76,5.76,0,0,0,2.613-5.054,6.153,6.153,0,0,0-1.2-3.826A6.933,6.933,0,0,0,19,19.787ZM6.922,12.954h4.8q3.531,0,3.531,2.385,0,2.421-3.531,2.421h-4.8V12.954Zm5.858,14.734H6.92V22.634h5.86q3.672,0,3.673,2.528T12.781,27.688Zm26.586-14.2V22.78a5.022,5.022,0,0,1-1.006,3.434,3.33,3.33,0,0,1-2.6,1.121,2.874,2.874,0,0,1-2.366-1,5,5,0,0,1-.812-3.167v-9.68H25.875V24.272q0,4.414,2.207,6.62A7.993,7.993,0,0,0,34,33.1a8.242,8.242,0,0,0,3.142-.6,6.891,6.891,0,0,0,2.543-1.78v2.063h6.39V13.488h-6.7v0ZM49.5,32.777l0,0H56.2V6.37H49.5V32.777ZM95.609,13.488v0L90.878,25.27l-4.7-11.78H73.225l-6.85,6.727V6.37H59.667V32.777h6.708V28.044l1.978-2.029,5.366,6.765h8.12L73.225,21.747l6.644-6.905L87.494,33.03a3,3,0,0,1-1.042,1.245,2.885,2.885,0,0,1-1.571.392,4.479,4.479,0,0,1-1.607-.3,4.038,4.038,0,0,1-1.359-.836l-2.331,4.733a7.339,7.339,0,0,0,2.49,1.264,10.2,10.2,0,0,0,3.054.481,8.718,8.718,0,0,0,5.084-1.442,10.861,10.861,0,0,0,3.531-5L102,13.488H95.609Zm-8.341-7.3C98.039,11.564,99.934,7.6,100.6,5.413c1.373-4.537-2.857-4.7-2.857-4.7,1.474,1.295,1.436,1.834,1.456,2.429,0.069,2.052-3.242.575-4.108,0C89.7-.436,89.281-0.283,87.339.389l-0.071.028L87.2,0.389c-1.942-.672-2.36-0.826-7.746,2.753-0.866.575-4.178,2.052-4.11,0,0.021-.6-0.016-1.135,1.456-2.429,0,0-4.229.162-2.86,4.7C74.6,7.6,76.5,11.564,87.268,6.191Z"/>
</svg>
